# xmcd CD database file
# Copyright (C) 1993-1998 Ti Kan
#
# Track frame offsets:
#	150
#	12702
#	31905
#	51565
#	65982
#	77137
#	93405
#	119157
#	133065
#	147485
#	165557
#	174860
#	197882
#	212347
#	227712
#	241232
#
# Disc length: 3403 seconds
#
# Revision: 1
# Processed by: cddbd v1.4b41PL1 Copyright (c) Steve Scherf et al.
# Submitted via: NotifyCDPlayer(CDDB) 1.51
#
DISCID=ed0d4910
DTITLE=Blind Dog Beerbelly - Blues Band
DYEAR=1900
DGENRE=
TTITLE0=Talkin Woman
TTITLE1=Easy Lovin
TTITLE2=Help Me
TTITLE3=Gi Me Back My Wig
TTITLE4=Big Road Blues
TTITLE5=Aint Doin Too Bad
TTITLE6=Open House and Baby Whay You Want Me To Do
TTITLE7=Blind Boy Fuller Medley
TTITLE8=Some Day I'll Be Comin Home
TTITLE9=Little Red Riding Hood
TTITLE10=Vampire Woman
TTITLE11=Aint That Lovin You
TTITLE12=Nobody Here But Us Chickens
TTITLE13=Maybe Some Day Baby
TTITLE14=Tell The Truth
TTITLE15=The Ballard Of Bugger Burns
EXTD=
EXTT0=
EXTT1=
EXTT2=
EXTT3=
EXTT4=
EXTT5=
EXTT6=
EXTT7=
EXTT8=
EXTT9=
EXTT10=
EXTT11=
EXTT12=
EXTT13=
EXTT14=
EXTT15=
PLAYORDER=
